<?xml version="1.0" encoding="UTF-8" standalone="no"?><!DOCTYPE svg PUBLIC "-//W3C//DTD SVG 1.1//EN" "http://www.w3.org/Graphics/SVG/1.1/DTD/svg11.dtd"><!-- Generated by graphviz version 2.40.1 (20161225.0304)
 --><!-- Title: G Pages: 1 --><svg xmlns="http://www.w3.org/2000/svg" xmlns:xlink="http://www.w3.org/1999/xlink" width="773pt" height="219pt" viewBox="0.00 0.00 773.48 219.19">
<g id="graph0" class="graph" transform="scale(1 1) rotate(0) translate(4 215.1927)">
<title>G</title>
<polygon fill="#ffffff" stroke="transparent" points="-4,4 -4,-215.1927 769.4754,-215.1927 769.4754,4 -4,4"/>
<!-- Client -->
<g id="node1" class="node">
<title>Client</title>
<ellipse fill="none" stroke="#000000" cx="37.5533" cy="-116.3927" rx="34.7864" ry="34.7864"/>
<text text-anchor="middle" x="37.5533" y="-112.1927" font-family="Times,serif" font-size="14.00" fill="#000000">Client</text>
</g>
<!-- Server -->
<g id="node2" class="node">
<title>Server</title>
<polygon fill="none" stroke="#000000" points="357.2789,-78.3927 303.2789,-78.3927 303.2789,-42.3927 357.2789,-42.3927 357.2789,-78.3927"/>
<text text-anchor="middle" x="330.2789" y="-56.1927" font-family="Times,serif" font-size="14.00" fill="#000000">Server</text>
</g>
<!-- Client&#45;&gt;Server -->
<g id="edge1" class="edge">
<title>Client-&gt;Server</title>
<path fill="none" stroke="#000000" d="M72.2428,-117.5179C118.3876,-118.0293 202.0021,-115.4985 269.6004,-94.3927 278.1428,-91.7256 286.8244,-87.7533 294.8488,-83.4551"/>
<polygon fill="#000000" stroke="#000000" points="296.6036,-86.4837 303.5868,-78.5159 293.159,-80.3898 296.6036,-86.4837"/>
<text text-anchor="middle" x="181.3535" y="-122.5927" font-family="Times,serif" font-size="14.00" fill="#000000">Client requests Teant1.com</text>
</g>
<!-- Client&#45;&gt;Server -->
<g id="edge9" class="edge">
<title>Client-&gt;Server</title>
<path fill="none" stroke="#ff0000" d="M79.8084,-101.0904C84.2667,-99.7316 88.7586,-98.4666 93.1066,-97.3927 102.7117,-95.0203 228.6085,-75.8026 292.9563,-66.0406"/>
<polygon fill="#ff0000" stroke="#ff0000" points="78.6265,-97.7937 70.1707,-104.1772 80.7617,-104.4602 78.6265,-97.7937"/>
<polygon fill="#ff0000" stroke="#ff0000" points="293.7377,-69.4622 303.1001,-64.5026 292.6884,-62.5413 293.7377,-69.4622"/>
</g>
<!-- Angular -->
<g id="node7" class="node">
<title>Angular</title>
<ellipse fill="none" stroke="#000000" cx="330.2789" cy="-176.3927" rx="42.8577" ry="18"/>
<text text-anchor="middle" x="330.2789" y="-172.1927" font-family="Times,serif" font-size="14.00" fill="#000000">Angular</text>
</g>
<!-- Client&#45;&gt;Angular -->
<g id="edge6" class="edge">
<title>Client-&gt;Angular</title>
<path fill="none" stroke="#000000" d="M70.1778,-128.059C77.6411,-130.4204 85.5906,-132.6961 93.1066,-134.3927 170.2811,-151.8142 192.3152,-140.669 269.6004,-157.5927 275.3977,-158.8622 281.439,-160.4287 287.3654,-162.1112"/>
<polygon fill="#000000" stroke="#000000" points="286.5849,-165.5304 297.1674,-165.0204 288.5766,-158.8197 286.5849,-165.5304"/>
<text text-anchor="middle" x="181.3535" y="-162.5927" font-family="Times,serif" font-size="14.00" fill="#000000">Load static files</text>
</g>
<!-- Server&#45;&gt;Client -->
<g id="edge5" class="edge">
<title>Server-&gt;Client</title>
<path fill="none" stroke="#000000" d="M303.1586,-52.0418C257.4554,-39.5483 163.2235,-20.6737 93.1066,-52.5927 80.7504,-58.2176 70.0743,-68.0987 61.4761,-78.429"/>
<polygon fill="#000000" stroke="#000000" points="58.6895,-76.3108 55.3125,-86.3531 64.2149,-80.6086 58.6895,-76.3108"/>
<text text-anchor="middle" x="181.3535" y="-57.5927" font-family="Times,serif" font-size="14.00" fill="#000000">Return static files and metadata</text>
</g>
<!-- Db -->
<g id="node3" class="node">
<title>Db</title>
<path fill="none" stroke="#000000" d="M748.7269,-107.12C748.7269,-108.9258 736.6251,-110.3927 721.7269,-110.3927 706.8288,-110.3927 694.7269,-108.9258 694.7269,-107.12 694.7269,-107.12 694.7269,-77.6654 694.7269,-77.6654 694.7269,-75.8596 706.8288,-74.3927 721.7269,-74.3927 736.6251,-74.3927 748.7269,-75.8596 748.7269,-77.6654 748.7269,-77.6654 748.7269,-107.12 748.7269,-107.12"/>
<path fill="none" stroke="#000000" d="M748.7269,-107.12C748.7269,-105.3142 736.6251,-103.8473 721.7269,-103.8473 706.8288,-103.8473 694.7269,-105.3142 694.7269,-107.12"/>
<text text-anchor="middle" x="721.7269" y="-88.1927" font-family="Times,serif" font-size="14.00" fill="#000000">Db</text>
</g>
<!-- Server&#45;&gt;Db -->
<g id="edge10" class="edge">
<title>Server-&gt;Db</title>
<path fill="none" stroke="#ff0000" d="M367.0272,-72.8655C374.8436,-75.0737 383.108,-77.083 390.9573,-78.3927 496.2665,-95.9648 622.9,-95.4072 684.4669,-93.7781"/>
<polygon fill="#ff0000" stroke="#ff0000" points="368.0143,-69.5077 357.4309,-69.9998 366.0113,-76.215 368.0143,-69.5077"/>
<polygon fill="#ff0000" stroke="#ff0000" points="684.5877,-97.2762 694.4821,-93.4879 684.3849,-90.2791 684.5877,-97.2762"/>
</g>
<!-- MetadataDb -->
<g id="node4" class="node">
<title>MetadataDb</title>
<path fill="none" stroke="#000000" d="M764.418,-44.12C764.418,-45.9258 745.2832,-47.3927 721.7269,-47.3927 698.1707,-47.3927 679.0359,-45.9258 679.0359,-44.12 679.0359,-44.12 679.0359,-14.6654 679.0359,-14.6654 679.0359,-12.8596 698.1707,-11.3927 721.7269,-11.3927 745.2832,-11.3927 764.418,-12.8596 764.418,-14.6654 764.418,-14.6654 764.418,-44.12 764.418,-44.12"/>
<path fill="none" stroke="#000000" d="M764.418,-44.12C764.418,-42.3142 745.2832,-40.8473 721.7269,-40.8473 698.1707,-40.8473 679.0359,-42.3142 679.0359,-44.12"/>
<text text-anchor="middle" x="721.7269" y="-25.1927" font-family="Times,serif" font-size="14.00" fill="#000000">MetadataDb</text>
</g>
<!-- Server&#45;&gt;MetadataDb -->
<g id="edge2" class="edge">
<title>Server-&gt;MetadataDb</title>
<path fill="none" stroke="#000000" d="M357.6962,-59.2883C414.3029,-56.8484 548.1669,-50.2533 659.9785,-38.3927 662.8569,-38.0874 665.8071,-37.7477 668.7828,-37.3843"/>
<polygon fill="#000000" stroke="#000000" points="669.4621,-40.8257 678.9307,-36.0721 668.5644,-33.8835 669.4621,-40.8257"/>
<text text-anchor="middle" x="525.4679" y="-62.5927" font-family="Times,serif" font-size="14.00" fill="#000000">Check tenant1.com exists</text>
</g>
<!-- MetadataDb&#45;&gt;Server -->
<g id="edge3" class="edge">
<title>MetadataDb-&gt;Server</title>
<path fill="none" stroke="#000000" d="M678.9847,-18.9077C614.739,-5.1184 490.2324,13.8968 390.9573,-17.5927 378.8613,-21.4295 367.0959,-28.6439 357.1953,-36.0711"/>
<polygon fill="#000000" stroke="#000000" points="355.0126,-33.3351 349.3512,-42.2905 359.3616,-38.8202 355.0126,-33.3351"/>
<text text-anchor="middle" x="525.4679" y="-22.5927" font-family="Times,serif" font-size="14.00" fill="#000000">Return templates, css, assets and other metadata</text>
</g>
<!-- StaticFiles -->
<g id="node5" class="node">
<title>StaticFiles</title>
<polygon fill="none" stroke="#000000" points="75.16,-36.3927 72.16,-40.3927 51.16,-40.3927 48.16,-36.3927 -.0534,-36.3927 -.0534,-.3927 75.16,-.3927 75.16,-36.3927"/>
<text text-anchor="middle" x="37.5533" y="-14.1927" font-family="Times,serif" font-size="14.00" fill="#000000">StaticFiles</text>
</g>
<!-- StaticFiles&#45;&gt;Server -->
<g id="edge4" class="edge">
<title>StaticFiles-&gt;Server</title>
<path fill="none" stroke="#000000" d="M75.1746,-16.4329C121.6184,-14.9722 202.6689,-15.5661 269.6004,-32.3927 277.6797,-34.4239 286.0005,-37.5184 293.7917,-40.9201"/>
<polygon fill="#000000" stroke="#000000" points="292.4353,-44.1489 302.9807,-45.1708 295.3742,-37.7957 292.4353,-44.1489"/>
</g>
<!-- Browser -->
<g id="node6" class="node">
<title>Browser</title>
<ellipse fill="none" stroke="#000000" cx="721.7269" cy="-176.3927" rx="43.9983" ry="18"/>
<text text-anchor="middle" x="721.7269" y="-172.1927" font-family="Times,serif" font-size="14.00" fill="#000000">Browser</text>
</g>
<!-- Angular&#45;&gt;Client -->
<g id="edge8" class="edge">
<title>Angular-&gt;Client</title>
<path fill="none" stroke="#ff0000" d="M282.1521,-186.5532C232.5813,-194.654 154.1618,-200.7615 93.1066,-174.3927 82.1172,-169.6466 72.2508,-161.5608 63.9901,-152.9091"/>
<polygon fill="#ff0000" stroke="#ff0000" points="283.0168,-189.9558 292.2755,-184.8053 281.8258,-183.0578 283.0168,-189.9558"/>
<polygon fill="#ff0000" stroke="#ff0000" points="66.4188,-150.3734 57.1561,-145.2301 61.1897,-155.0271 66.4188,-150.3734"/>
<text text-anchor="middle" x="181.3535" y="-198.5927" font-family="Times,serif" font-size="14.00" fill="#000000">Get live data</text>
</g>
<!-- Angular&#45;&gt;Browser -->
<g id="edge7" class="edge">
<title>Angular-&gt;Browser</title>
<path fill="none" stroke="#000000" d="M373.2904,-176.3927C445.0436,-176.3927 589.0235,-176.3927 667.5741,-176.3927"/>
<polygon fill="#000000" stroke="#000000" points="667.7463,-179.8928 677.7462,-176.3927 667.7462,-172.8928 667.7463,-179.8928"/>
<text text-anchor="middle" x="525.4679" y="-180.5927" font-family="Times,serif" font-size="14.00" fill="#000000">Dynamiclly load tenant1.com templates</text>
</g>
</g>
</svg>